<svg width="168" height="276" viewBox="0 0 168 276" fill="none" xmlns="http://www.w3.org/2000/svg">
  <ellipse cx="83.5667" cy="255.435" rx="83.5667" ry="20.5649" fill="#045B76" fill-opacity="0.67" />
  <ellipse cx="83.5667" cy="226.591" rx="83.5667" ry="20.5649" fill="#0D7EA2" fill-opacity="0.67" />
  <ellipse cx="83.5667" cy="196.144" rx="83.5667" ry="20.5649" fill="#3DA3C4" fill-opacity="0.67" />
  <ellipse cx="83.5667" cy="166.232" rx="83.5667" ry="20.5649" fill="#66C0DC" fill-opacity="0.67" />
  <ellipse cx="83.5667" cy="137.098" rx="83.5667" ry="20.5649" fill="#87D6EF" fill-opacity="0.56" />
  <ellipse cx="83.5667" cy="107.198" rx="83.5667" ry="20.5649" fill="#F89090" fill-opacity="0.56" />
  <ellipse cx="83.5667" cy="107.525" rx="20.3167" ry="5.175" fill="#350000" fill-opacity="0.32" />
  <path d="M76.6385 12C79.7177 6.66667 87.4157 6.66667 90.4949 12L123.115 68.5C126.194 73.8333 122.345 80.5 116.187 80.5H50.9464C44.788 80.5 40.939 73.8333 44.0182 68.5L76.6385 12Z" fill="#F34444" fill-opacity="0.77" />
  <circle cx="83.5667" cy="66.3167" r="4.6" fill="#410101" fill-opacity="0.54" />
  <rect x="79" y="25" width="9" height="32" rx="4.5" fill="#410101" fill-opacity="0.54" />
</svg>
  