<svg xmlns="http://www.w3.org/2000/svg" viewBox="0 0 1440 320"><path fill="#1a1d21" fill-opacity="1" d="M0,32L21.8,53.3C43.6,75,87,117,131,133.3C174.5,149,218,139,262,112C305.5,85,349,43,393,58.7C436.4,75,480,149,524,170.7C567.3,192,611,160,655,133.3C698.2,107,742,85,785,85.3C829.1,85,873,107,916,122.7C960,139,1004,149,1047,160C1090.9,171,1135,181,1178,176C1221.8,171,1265,149,1309,144C1352.7,139,1396,149,1418,154.7L1440,160L1440,320L1418.2,320C1396.4,320,1353,320,1309,320C1265.5,320,1222,320,1178,320C1134.5,320,1091,320,1047,320C1003.6,320,960,320,916,320C872.7,320,829,320,785,320C741.8,320,698,320,655,320C610.9,320,567,320,524,320C480,320,436,320,393,320C349.1,320,305,320,262,320C218.2,320,175,320,131,320C87.3,320,44,320,22,320L0,320Z" data-darkreader-inline-fill="" style="--darkreader-inline-fill:#161819;"></path></svg>